<?xml version="1.0" encoding="UTF-8" standalone="no"?>
<svg
   xmlns:dc="http://purl.org/dc/elements/1.1/"
   xmlns:cc="http://creativecommons.org/ns#"
   xmlns:rdf="http://www.w3.org/1999/02/22-rdf-syntax-ns#"
   xmlns:svg="http://www.w3.org/2000/svg"
   xmlns="http://www.w3.org/2000/svg"
   viewBox="0 0 124.72 124.72"
   height="124.72"
   width="124.72"
   xml:space="preserve"
   id="svg2"
   version="1.1"><metadata
     id="metadata8"><rdf:RDF><cc:Work
         rdf:about=""><dc:format>image/svg+xml</dc:format><dc:type
           rdf:resource="http://purl.org/dc/dcmitype/StillImage" /></cc:Work></rdf:RDF></metadata><defs
     id="defs6" /><g
     transform="matrix(1.3333333,0,0,-1.3333333,0,124.72)"
     id="g10"><g
       transform="scale(0.1)"
       id="g12"><path
         id="path14"
         style="fill:#d40e49;fill-opacity:1;fill-rule:nonzero;stroke:none"
         d="m 157.598,0 h 777.84 v 777.852 c 0,0 0,157.578 -157.594,157.578 H 157.578 c 0,0 -157.578,0 -157.578,-157.598 L 0,157.578 C 0,157.578 0,0 157.598,0" /><path
         id="path16"
         style="fill:#ffffff;fill-opacity:1;fill-rule:nonzero;stroke:none"
         d="m 617.59,620.738 c 22.969,26.235 39.312,54.86 46.25,81.719 3.863,15.043 4.805,29.531 2.246,42.723 -11.215,58.379 -85.859,69.558 -167.055,25.3 l -11.093,57.61 -85.922,-47.442 13.906,-72.273 c 8.957,5.629 17.824,9.262 25.879,10.102 27.344,2.808 35.039,-27.008 17.265,-66.579 -6.289,-14.015 -15,-27.332 -24.785,-38.886 L 450.59,528.32 c 0.019,-0.058 0.019,-0.078 0.019,-0.078 l 0.293,-1.523 0.059,0.039 c 12.344,-57.324 87.137,-67.742 168.172,-23.008 80.097,44.238 136.465,125.855 128.18,184.375 -3.258,-23.344 -26.383,-52.129 -57.364,-69.238 -32.871,-18.145 -63.261,-16.895 -72.281,1.679 0,0.051 -0.063,0.11 -0.078,0.172 v 0" /><path
         id="path18"
         style="fill:#ffffff;fill-opacity:1;fill-rule:nonzero;stroke:none"
         d="m 377.32,575.168 c -27.355,-2.805 -35.07,27 -17.277,66.555 7.141,15.828 17.266,30.761 28.594,43.238 L 373.266,764.758 204.199,671.402 253.07,417.5 l 169.063,93.34 -14.852,77.148 c -10.324,-7.207 -20.676,-11.855 -29.961,-12.82 v 0" /><path
         id="path20"
         style="fill:#ffffff;fill-opacity:1;fill-rule:nonzero;stroke:none"
         d="m 143.93,247.422 v 31.777 H 114.246 V 247.422 H 98.6797 v 75.683 h 15.5663 v -29.667 h 29.684 v 29.667 h 15.566 V 247.422 H 143.93" /><path
         id="path22"
         style="fill:#ffffff;fill-opacity:1;fill-rule:nonzero;stroke:none"
         d="m 211.859,309.551 c -12.23,0 -22.789,-9.004 -22.789,-24.688 0,-16.328 11.121,-24.55 22.789,-24.55 12.454,0 22.903,7.988 22.903,24.453 0,15.879 -9.895,24.785 -22.903,24.785 z m -0.89,-63.809 c -21.559,0 -38.465,15.801 -38.465,38.028 0,23.007 16.68,40.664 39.687,40.664 22.239,0 39.239,-15.196 39.239,-38.34 0,-24.004 -17.332,-40.352 -40.461,-40.352" /><path
         id="path24"
         style="fill:#ffffff;fill-opacity:1;fill-rule:nonzero;stroke:none"
         d="m 303.578,246.172 c -21.562,0 -41.582,9.59 -41.582,38.808 0,25.684 17.461,39.239 41.133,39.239 12.109,0 20.234,-3.438 23.789,-6.114 l -4.336,-14.785 c -3.555,2.91 -11.23,6.582 -20.352,6.582 -12.781,0 -23.222,-7.91 -23.222,-24.922 0,-16.757 10.558,-25.449 26.125,-25.449 3.328,0 9.004,0.332 11.336,2.012 v 21.68 h 15.117 v -30.02 c -5.117,-3.457 -15.34,-7.031 -28.008,-7.031" /><path
         id="path26"
         style="fill:#ffffff;fill-opacity:1;fill-rule:nonzero;stroke:none"
         d="m 346.938,247.422 v 75.683 h 45.8 v -13.671 h -30.125 v -15.879 h 27.567 v -13.789 h -27.567 v -18.692 h 32.899 v -13.652 h -48.574" /><path
         id="path28"
         style="fill:#ffffff;fill-opacity:1;fill-rule:nonzero;stroke:none"
         d="m 433.199,246.094 c -13.566,0 -21.347,4.316 -26.691,7.422 l 3.34,16.25 c 5.89,-4.805 16.23,-9.356 22.246,-9.356 6.992,0 10.996,3.223 10.996,7.676 0,4.57 -2.449,7.676 -7.676,9.336 l -10.223,3.34 c -15.011,4.883 -16.574,12.441 -16.574,22.461 0,9.433 9.571,21.211 24.914,21.211 11.551,0 16.895,-1.641 23.348,-6.094 l -3.672,-16.25 c -7.012,6.23 -12.461,7.91 -18.672,7.91 -5.683,0 -9.793,-3.223 -9.793,-6.445 0,-4.121 2.344,-6.328 8.016,-8.223 l 9.445,-3.125 c 14.227,-4.648 17.332,-12.676 17.332,-23.242 0,-11.875 -11.445,-22.871 -26.336,-22.871" /><path
         id="path30"
         style="fill:#ffffff;fill-opacity:1;fill-rule:nonzero;stroke:none"
         d="m 508.137,246.172 c -18.789,0 -37.692,9.805 -37.692,37.598 0,23.574 13.571,40.253 38.586,40.253 13.789,0 22.68,-6.25 22.68,-6.25 l -5.219,-14.882 c -5.347,4.218 -10.469,6.347 -18.355,6.347 -13.008,0 -21.567,-9.355 -21.567,-23.808 0,-17.559 12.895,-24.004 23.891,-24.004 8.687,0 13.238,1.992 18.457,6.445 l 5.328,-13.887 c -7.891,-6.132 -16.773,-7.812 -26.109,-7.812" /><path
         id="path32"
         style="fill:#ffffff;fill-opacity:1;fill-rule:nonzero;stroke:none"
         d="m 594.504,247.422 v 31.777 H 564.836 V 247.422 H 549.27 v 75.683 h 15.566 v -29.667 h 29.668 v 29.667 h 15.562 v -75.683 h -15.562" /><path
         id="path34"
         style="fill:#ffffff;fill-opacity:1;fill-rule:nonzero;stroke:none"
         d="m 662.434,309.551 c -12.207,0 -22.778,-9.004 -22.778,-24.688 0,-16.328 11.114,-24.55 22.778,-24.55 12.437,0 22.91,7.988 22.91,24.453 0,15.879 -9.906,24.785 -22.91,24.785 z m -0.879,-63.809 c -21.567,0 -38.481,15.801 -38.481,38.028 0,23.007 16.684,40.664 39.692,40.664 22.246,0 39.238,-15.196 39.238,-38.34 0,-24.004 -17.324,-40.352 -40.449,-40.352" /><path
         id="path36"
         style="fill:#ffffff;fill-opacity:1;fill-rule:nonzero;stroke:none"
         d="m 751.809,309.551 c -12.207,0 -22.778,-9.004 -22.778,-24.688 0,-16.328 11.114,-24.55 22.778,-24.55 12.461,0 22.91,7.988 22.91,24.453 0,15.879 -9.883,24.785 -22.91,24.785 z m -0.903,-63.809 c -21.543,0 -38.457,15.801 -38.457,38.028 0,23.007 16.684,40.664 39.692,40.664 22.246,0 39.277,-15.196 39.277,-38.34 0,-24.004 -17.363,-40.352 -40.512,-40.352" /><path
         id="path38"
         style="fill:#ffffff;fill-opacity:1;fill-rule:nonzero;stroke:none"
         d="m 805.066,247.422 v 75.683 h 15.571 v -61.679 h 33.008 v -14.004 h -48.579" /><path
         id="path40"
         style="fill:#ffffff;fill-opacity:1;fill-rule:nonzero;stroke:none"
         d="m 164.293,184.668 c -2.445,0 -5.34,-0.215 -7.461,-0.43 v -20.019 c 0,0 4.563,-0.567 7.461,-0.567 6.781,0 10.336,4.59 10.336,11.036 0,5.644 -3.891,9.98 -10.336,9.98 z m 19.113,-63.145 -21.789,29.786 -4.668,0.117 v -29.551 h -15.562 v 75.469 c 0,0 13.23,0.996 22.34,0.996 18.015,0 26.57,-8.535 26.57,-23.242 0,-11.309 -6.777,-18.672 -12.113,-21.328 l 22.125,-28.887 -16.903,-3.36" /><path
         id="path42"
         style="fill:#ffffff;fill-opacity:1;fill-rule:nonzero;stroke:none"
         d="m 241.863,184.004 c -12.218,0 -22.781,-9.004 -22.781,-24.668 0,-16.348 11.117,-24.57 22.781,-24.57 12.457,0 22.907,8.007 22.907,24.472 0,15.86 -9.891,24.766 -22.907,24.766 z m -0.879,-63.809 c -21.57,0 -38.472,15.801 -38.472,38.028 0,23.007 16.676,40.683 39.691,40.683 22.235,0 39.246,-15.234 39.246,-38.359 0,-24.004 -17.344,-40.352 -40.465,-40.352" /><path
         id="path44"
         style="fill:#ffffff;fill-opacity:1;fill-rule:nonzero;stroke:none"
         d="m 326.363,182.773 v -60.898 h -15.578 v 60.684 H 289.34 v 14.902 h 58.262 v -14.688 h -21.239" /><path
         id="path46"
         style="fill:#ffffff;fill-opacity:1;fill-rule:nonzero;stroke:none"
         d="m 395.043,182.773 v -60.898 h -15.566 v 60.684 h -21.454 v 14.902 h 58.27 v -14.688 h -21.25" /><path
         id="path48"
         style="fill:#ffffff;fill-opacity:1;fill-rule:nonzero;stroke:none"
         d="m 427.621,121.875 v 75.684 h 45.801 v -13.672 h -30.125 v -15.899 h 27.566 v -13.789 h -27.566 v -18.672 h 32.918 v -13.652 h -48.594" /><path
         id="path50"
         style="fill:#ffffff;fill-opacity:1;fill-rule:nonzero;stroke:none"
         d="m 514.895,184.668 c -2.461,0 -5.332,-0.215 -7.446,-0.43 v -20.019 c 0,0 4.555,-0.567 7.446,-0.567 6.793,0 10.347,4.59 10.347,11.036 0,5.644 -3.902,9.98 -10.347,9.98 z m 19.121,-63.145 -21.797,29.786 -4.653,0.117 V 121.875 H 491.98 v 75.469 c 0,0 13.247,0.996 22.344,0.996 18.031,0 26.582,-8.535 26.582,-23.242 0,-11.309 -6.797,-18.672 -12.105,-21.328 l 22.129,-28.887 -16.914,-3.36" /><path
         id="path52"
         style="fill:#ffffff;fill-opacity:1;fill-rule:nonzero;stroke:none"
         d="m 587.488,184.668 c -4.004,0 -10.894,-0.566 -10.894,-0.566 v -48.789 c 1.992,-0.665 5.996,-1.329 11.66,-1.329 13.355,0 22.809,12.461 22.809,26.68 0,15.781 -12.458,24.004 -23.575,24.004 z m -2.675,-64.141 c -11.227,0 -24.02,1.661 -24.02,1.661 v 75.273 c 0,0 13.809,1.445 24.898,1.445 29.922,0 41.582,-16.015 41.582,-36.015 0,-21.895 -11.089,-42.364 -42.46,-42.364" /><path
         id="path54"
         style="fill:#ffffff;fill-opacity:1;fill-rule:nonzero;stroke:none"
         d="m 666.316,177.676 -9.668,-24.922 h 18.555 z m 20.547,-56.035 -7.769,19.004 h -26.449 l -7.79,-18.77 h -16.234 l 31.914,75.586 h 13.442 l 29.586,-75.703 -16.7,-0.117" /><path
         id="path56"
         style="fill:#ffffff;fill-opacity:1;fill-rule:nonzero;stroke:none"
         d="M 793.605,121.641 783.27,165.43 763.254,121.758 h -11.137 l -19.429,43.672 -9.36,-43.672 -15.113,0.117 16.582,74.473 h 12.891 l 21.113,-50.254 23.023,51.367 h 11.328 l 17.778,-75.586 -17.325,-0.234" /></g></g></svg>